ply
format ascii 1.0
comment created by MATLAB plywrite
element vertex 162
property float x
property float y
property float z
element face 320
property list uchar uchar vertex_indices
end_header
-0.000000 0.000000 -23.107076 
-18.272428 13.275696 -11.292981 
-18.641565 -13.543890 -11.521121 
7.526924 -23.165489 -12.178818 
29.830874 -0.000000 -14.915437 
7.047311 21.689394 -11.402789 
-26.304082 0.000000 13.152041 
-6.637386 -20.427772 10.739515 
19.847845 -14.420303 12.266643 
19.249280 13.985421 11.896709 
-6.912318 21.273928 11.184366 
-0.000000 0.000000 26.045918 
-9.928284 7.213321 -19.856568 
-10.007994 -7.271233 -20.015988 
4.071585 -12.531051 -21.319097 
15.293002 -0.000000 -24.744597 
3.749606 11.540101 -19.633193 
-20.684076 0.000000 -12.783462 
-6.756746 20.795125 -13.513491 
-24.465066 7.949182 0.000000 
-15.712715 21.626697 0.000000 
-6.612255 -20.350430 -13.224511 
-25.854688 -8.400697 0.000000 
-15.588385 -21.455571 0.000000 
22.841920 -16.595626 -17.449674 
-0.000000 -24.826300 0.000000 
17.204888 -23.680497 0.000000 
18.753069 13.624902 -14.326070 
30.381306 -9.871485 0.000000 
26.575374 8.634862 0.000000 
16.168677 22.254275 0.000000 
0.000000 28.737846 0.000000 
-19.999241 -14.530299 15.278061 
-17.468560 12.691651 13.344792 
-15.036236 0.000000 24.329141 
6.212429 -19.119891 12.424858 
-4.189907 -12.895208 21.938638 
22.722078 -0.000000 14.043016 
11.007530 -7.997439 22.015060 
7.002234 21.550661 14.004469 
10.935282 7.944947 21.870564 
-3.778690 11.629613 19.785479 
-16.067041 3.891130 -17.331346 
-8.779000 -14.262350 -17.558000 
13.033835 -15.322192 -21.089188 
18.386206 7.573059 -20.846842 
-1.242450 16.198163 -17.031757 
-26.366152 0.000000 0.000000 
-7.790602 -23.977009 0.000000 
25.627734 -18.619639 0.000000 
21.823912 15.856000 0.000000 
-8.641863 26.596919 0.000000 
-18.382144 -18.858141 7.573860 
11.608198 -22.080104 7.174261 
25.681556 4.404732 7.493777 
3.894811 26.803739 7.789623 
-22.621114 11.164187 7.254928 
-10.183589 -7.398810 25.175215 
3.496154 -10.760056 22.627585 
11.723316 -0.000000 23.446631 
3.358237 10.335591 21.734967 
-9.190496 6.677286 22.720156 
-10.386505 0.000000 -20.773010 
-3.217459 -9.902322 -20.823834 
9.873965 -7.173856 -24.409784 
9.169431 6.661982 -22.668081 
-3.134234 9.646180 -20.285188 
-23.447290 4.021525 -6.841827 
-11.653115 -22.165541 -7.202021 
21.489780 -22.046248 -8.854276 
24.419489 12.051738 -7.831694 
-3.821866 26.301738 -7.643732 
-24.938715 -12.307992 7.998218 
3.291822 -22.654023 6.583645 
27.096356 -4.647389 7.906610 
12.568104 23.905954 7.767515 
-17.063288 17.505133 7.030461 
-19.164431 -7.893600 21.729218 
1.247503 -16.264040 17.101023 
17.766017 -4.302589 19.164012 
9.255885 15.037097 18.511771 
-10.650771 12.520732 17.233309 
-16.177668 -3.917921 -17.450678 
-1.285560 -16.760204 -17.622721 
20.524662 -8.453863 -23.271488 
11.171102 13.132419 -18.075223 
-8.718511 14.164080 -17.437022 
-23.942891 -4.106527 -6.986441 
-3.521238 -24.232843 -7.042476 
29.537125 -14.577442 -9.472996 
17.849873 18.312087 -7.354552 
-12.162899 23.135208 -7.517085 
-22.146042 -16.090041 0.000000 
8.145723 -25.069959 0.000000 
30.149319 -0.000000 0.000000 
8.802375 27.090925 0.000000 
-20.895014 15.181116 0.000000 
-12.299978 -14.459491 19.901782 
8.913482 -14.480830 17.826964 
17.636533 4.271231 19.024340 
1.271359 16.575057 17.428046 
-17.249668 7.104932 19.558201 
-5.011400 3.640995 -21.805308 
-5.051062 -3.669811 -21.977882 
2.023631 -6.228096 -23.052062 
6.934997 -0.000000 -24.412209 
1.948340 5.996375 -22.194392 
-19.996228 6.677839 -12.358348 
-13.190949 17.848036 -13.010060 
-21.936587 10.934451 -5.858097 
-17.916810 18.235910 -6.110027 
-13.125917 -17.760044 -12.945919 
-22.870029 -11.399732 -6.107370 
-18.134010 -18.456979 -6.184097 
15.095997 -21.138042 -15.226841 
3.750543 -25.112573 -6.068505 
12.944048 -24.859241 -6.698564 
25.044349 7.912316 -15.396491 
32.098776 -5.374779 -7.778453 
29.479243 4.936151 -7.143665 
12.067028 23.174909 -6.244704 
3.970644 26.586308 -6.424636 
-24.894794 -7.865066 15.304550 
-22.780768 7.197178 14.004912 
-21.958430 0.000000 20.067527 
-0.161303 -19.789799 11.601346 
-5.597823 -17.228328 16.555007 
22.357175 -7.466289 13.817494 
15.585387 -11.323446 17.605668 
13.830638 18.713568 13.640976 
15.652925 11.372516 17.681961 
-5.311152 16.346045 15.707205 
-14.561188 10.579322 -16.448706 
-14.728356 -10.700777 -16.637543 
6.002300 -18.473181 -17.751209 
23.878367 -0.000000 -21.822133 
5.422525 16.688817 -16.036581 
-20.383917 -6.807310 -12.597953 
0.178927 21.952034 -12.868910 
-26.251655 4.395708 6.361529 
-11.759973 22.585206 6.085803 
0.178722 -21.926833 -12.854136 
-27.410493 -4.589750 6.642348 
-11.413442 -21.919689 5.906473 
28.473131 -8.995578 -17.504401 
-3.420742 -22.904319 5.534876 
19.466166 -19.812861 6.638392 
12.719712 17.810669 -12.829960 
25.861343 -12.890774 6.906191 
23.190916 11.559681 6.193062 
18.570850 18.901600 6.333069 
-3.957168 26.496079 6.402832 
-13.254432 -18.559406 13.369315 
-12.124169 16.976764 12.229255 
-7.374506 0.000000 25.959346 
13.094057 -17.716937 12.914497 
-2.242346 -6.901230 25.543534 
21.529851 7.190000 13.306180 
5.765465 -4.188856 25.086353 
-0.180732 22.173462 12.998717 
5.640778 4.098265 24.543822 
-2.084178 6.414440 23.741777 
3 42 82 62 
3 43 83 63 
3 44 84 64 
3 45 85 65 
3 46 86 66 
3 47 87 67 
3 48 88 68 
3 49 89 69 
3 50 90 70 
3 51 91 71 
3 52 92 72 
3 53 93 73 
3 54 94 74 
3 55 95 75 
3 56 96 76 
3 57 97 77 
3 58 98 78 
3 59 99 79 
3 60 100 80 
3 61 101 81 
3 62 103 102 
3 63 104 103 
3 64 105 104 
3 65 106 105 
3 66 102 106 
3 67 107 109 
3 68 111 113 
3 69 114 116 
3 70 117 119 
3 71 138 121 
3 72 142 122 
3 73 145 125 
3 74 148 127 
3 75 150 129 
3 76 140 153 
3 77 122 124 
3 78 125 126 
3 79 127 128 
3 80 129 130 
3 81 153 131 
3 42 132 107 
3 43 133 111 
3 44 134 114 
3 45 135 117 
3 46 136 138 
3 47 139 142 
3 48 143 145 
3 49 146 148 
3 50 149 150 
3 51 151 140 
3 52 152 143 
3 53 155 146 
3 54 157 149 
3 55 159 151 
3 56 123 139 
3 57 154 156 
3 58 156 158 
3 59 158 160 
3 60 160 161 
3 61 161 154 
3 82 137 133 
3 83 141 134 
3 84 144 135 
3 85 147 136 
3 86 108 132 
3 87 112 137 
3 88 115 141 
3 89 118 144 
3 90 120 147 
3 91 110 108 
3 92 113 112 
3 93 116 115 
3 94 119 118 
3 95 121 120 
3 96 109 110 
3 97 126 152 
3 98 128 155 
3 99 130 157 
3 100 131 159 
3 101 124 123 
3 42 62 12 
3 43 63 13 
3 44 64 14 
3 45 65 15 
3 46 66 16 
3 47 67 19 
3 48 68 23 
3 49 69 26 
3 50 70 29 
3 51 71 31 
3 52 72 32 
3 53 73 35 
3 54 74 37 
3 55 75 39 
3 56 76 33 
3 57 77 34 
3 58 78 36 
3 59 79 38 
3 60 80 40 
3 61 81 41 
3 62 102 12 
3 63 103 13 
3 64 104 14 
3 65 105 15 
3 66 106 16 
3 67 109 19 
3 68 113 23 
3 69 116 26 
3 70 119 29 
3 71 121 31 
3 72 122 32 
3 73 125 35 
3 74 127 37 
3 75 129 39 
3 76 153 33 
3 77 124 34 
3 78 126 36 
3 79 128 38 
3 80 130 40 
3 81 131 41 
3 42 107 17 
3 43 111 21 
3 44 114 24 
3 45 117 27 
3 46 138 18 
3 47 142 22 
3 48 145 25 
3 49 148 28 
3 50 150 30 
3 51 140 20 
3 52 143 23 
3 53 146 26 
3 54 149 29 
3 55 151 31 
3 56 139 19 
3 57 156 36 
3 58 158 38 
3 59 160 40 
3 60 161 41 
3 61 154 34 
3 82 133 13 
3 83 134 14 
3 84 135 15 
3 85 136 16 
3 86 132 12 
3 87 137 17 
3 88 141 21 
3 89 144 24 
3 90 147 27 
3 91 108 18 
3 92 112 22 
3 93 115 25 
3 94 118 28 
3 95 120 30 
3 96 110 20 
3 97 152 32 
3 98 155 35 
3 99 157 37 
3 100 159 39 
3 101 123 33 
3 82 42 17 
3 83 43 21 
3 84 44 24 
3 85 45 27 
3 86 46 18 
3 87 47 22 
3 88 48 25 
3 89 49 28 
3 90 50 30 
3 91 51 20 
3 92 52 23 
3 93 53 26 
3 94 54 29 
3 95 55 31 
3 96 56 19 
3 97 57 36 
3 98 58 38 
3 99 59 40 
3 100 60 41 
3 101 61 34 
3 103 62 13 
3 104 63 14 
3 105 64 15 
3 106 65 16 
3 102 66 12 
3 107 67 17 
3 111 68 21 
3 114 69 24 
3 117 70 27 
3 138 71 18 
3 142 72 22 
3 145 73 25 
3 148 74 28 
3 150 75 30 
3 140 76 20 
3 122 77 32 
3 125 78 35 
3 127 79 37 
3 129 80 39 
3 153 81 33 
3 132 42 12 
3 133 43 13 
3 134 44 14 
3 135 45 15 
3 136 46 16 
3 139 47 19 
3 143 48 23 
3 146 49 26 
3 149 50 29 
3 151 51 31 
3 152 52 32 
3 155 53 35 
3 157 54 37 
3 159 55 39 
3 123 56 33 
3 154 57 34 
3 156 58 36 
3 158 59 38 
3 160 60 40 
3 161 61 41 
3 137 82 17 
3 141 83 21 
3 144 84 24 
3 147 85 27 
3 108 86 18 
3 112 87 22 
3 115 88 25 
3 118 89 28 
3 120 90 30 
3 110 91 20 
3 113 92 23 
3 116 93 26 
3 119 94 29 
3 121 95 31 
3 109 96 19 
3 126 97 36 
3 128 98 38 
3 130 99 40 
3 131 100 41 
3 124 101 34 
3 62 82 13 
3 63 83 14 
3 64 84 15 
3 65 85 16 
3 66 86 12 
3 67 87 17 
3 68 88 21 
3 69 89 24 
3 70 90 27 
3 71 91 18 
3 72 92 22 
3 73 93 25 
3 74 94 28 
3 75 95 30 
3 76 96 20 
3 77 97 32 
3 78 98 35 
3 79 99 37 
3 80 100 39 
3 81 101 33 
3 102 103 0 
3 103 104 0 
3 104 105 0 
3 105 106 0 
3 106 102 0 
3 109 107 1 
3 113 111 2 
3 116 114 3 
3 119 117 4 
3 121 138 5 
3 122 142 6 
3 125 145 7 
3 127 148 8 
3 129 150 9 
3 153 140 10 
3 124 122 6 
3 126 125 7 
3 128 127 8 
3 130 129 9 
3 131 153 10 
3 107 132 1 
3 111 133 2 
3 114 134 3 
3 117 135 4 
3 138 136 5 
3 142 139 6 
3 145 143 7 
3 148 146 8 
3 150 149 9 
3 140 151 10 
3 143 152 7 
3 146 155 8 
3 149 157 9 
3 151 159 10 
3 139 123 6 
3 156 154 11 
3 158 156 11 
3 160 158 11 
3 161 160 11 
3 154 161 11 
3 133 137 2 
3 134 141 3 
3 135 144 4 
3 136 147 5 
3 132 108 1 
3 137 112 2 
3 141 115 3 
3 144 118 4 
3 147 120 5 
3 108 110 1 
3 112 113 2 
3 115 116 3 
3 118 119 4 
3 120 121 5 
3 110 109 1 
3 152 126 7 
3 155 128 8 
3 157 130 9 
3 159 131 10 
3 123 124 6 
